<svg xmlns="http://www.w3.org/2000/svg" xmlns:xlink="http://www.w3.org/1999/xlink" width="87" height="92" viewBox="0 0 87 92">
  <defs>
    <clipPath id="clip-path">
      <rect id="Rectangle_17" data-name="Rectangle 17" width="87" height="92" transform="translate(1057 2772)" fill="#fff" stroke="#fff" stroke-width="1"/>
    </clipPath>
  </defs>
  <g id="Mask_Group_6" data-name="Mask Group 6" transform="translate(-1057 -2772)" clip-path="url(#clip-path)">
    <g id="handyman-tools" transform="translate(1054.711 2772.211)">
      <path id="Path_6" data-name="Path 6" d="M0,0H1920V863H0Z" transform="translate(-914.711 -933.211)" fill="rgba(0,0,0,0.05)"/>
      <path id="Path_1" data-name="Path 1" d="M19.52,36.219a16.814,16.814,0,0,0,5.12-.8l9.834,9.827L45.243,34.477,35.414,24.64a16.738,16.738,0,0,0-4.078-16.9A16.542,16.542,0,0,0,19.564,2.868,16.836,16.836,0,0,0,12.359,4.5a1.147,1.147,0,0,0-.317,1.846L22.388,16.69a4.023,4.023,0,0,1,0,5.7,4.12,4.12,0,0,1-5.7,0L6.338,12.043a1.145,1.145,0,0,0-1.844.316A16.664,16.664,0,0,0,19.52,36.219Z" fill="#fff"/>
      <path id="Path_2" data-name="Path 2" d="M72.064,55.358a16.817,16.817,0,0,0-5.128.8L56.06,45.285,45.283,56.06l10.88,10.879a16.753,16.753,0,0,0,4.078,16.895A16.546,16.546,0,0,0,72.013,88.71a16.841,16.841,0,0,0,7.207-1.629,1.147,1.147,0,0,0,.317-1.846L69.191,74.885a4.019,4.019,0,0,1,0-5.7,4.119,4.119,0,0,1,5.7,0L85.238,79.533a1.146,1.146,0,0,0,1.846-.316,16.662,16.662,0,0,0-15.02-23.859Z" fill="#fff"/>
      <path id="Path_3" data-name="Path 3" d="M67.637,30.828s1.8,1.577,3.284.84c1.677-.844,6.4,3.815,7.911,4.9,0,0,.015,0,.033.012l-.824.828a2.767,2.767,0,1,0,3.914,3.911l6.526-6.517a2.77,2.77,0,0,0-3.916-3.919l-1.087,1.086c-.9-1.24-2.4-3.354-2.207-4.054.8-3.067-5.457-10.311-5.457-10.311C60.286,2.083,49.914,2.436,44.98,4.132c-1.981.681-1.613,1.113.444,1.475C60.394,8.221,62.25,17.049,59.713,20.455c-.976,1.315.448,2.9.448,2.9l.535.531L35.419,49.161a4.972,4.972,0,0,1,.97.736l4.252,4.248a4.942,4.942,0,0,1,.73.963L66.647,29.835Z" fill="#fff"/>
      <path id="Path_4" data-name="Path 4" d="M34.687,51.6a2.631,2.631,0,0,0-3.518-.127L3.079,76.652a2.209,2.209,0,0,0-.124,3.274l7.651,7.646a2.21,2.21,0,0,0,3.271-.114l25.191-28.1a2.627,2.627,0,0,0-.129-3.513Z" fill="#fff"/>
    </g>
  </g>
</svg>
