<svg xmlns="http://www.w3.org/2000/svg" width="26.423" height="27" viewBox="0 0 26.423 27">
  <path id="Icon_awesome-user-circle" data-name="Icon awesome-user-circle" d="M13.211.563A13.356,13.356,0,0,0,0,14.063a13.356,13.356,0,0,0,13.211,13.5,13.356,13.356,0,0,0,13.211-13.5A13.356,13.356,0,0,0,13.211.563Zm0,5.226a4.791,4.791,0,1,1-4.688,4.79A4.74,4.74,0,0,1,13.211,5.788Zm0,18.726a10.122,10.122,0,0,1-7.8-3.712,5.926,5.926,0,0,1,5.247-3.255,1.278,1.278,0,0,1,.378.06,6.917,6.917,0,0,0,2.179.376,6.891,6.891,0,0,0,2.179-.376,1.278,1.278,0,0,1,.378-.06A5.926,5.926,0,0,1,21.016,20.8,10.122,10.122,0,0,1,13.211,24.514Z" transform="translate(0 -0.563)" fill="#fff"/>
</svg>
