<svg xmlns="http://www.w3.org/2000/svg" width="29" height="19.576" viewBox="0 0 29 19.576">
  <path id="Icon_zocial-email" data-name="Icon zocial-email" d="M.072,21.91V5.8q0-.028.084-.531l9.48,8.11L.184,22.469a2.37,2.37,0,0,1-.112-.559ZM1.33,4.152a1.205,1.205,0,0,1,.475-.084H27.338a1.584,1.584,0,0,1,.5.084L18.333,12.29,17.075,13.3l-2.489,2.041L12.1,13.3,10.839,12.29ZM1.358,23.56l9.536-9.145,3.691,2.992,3.691-2.992,9.536,9.145a1.343,1.343,0,0,1-.475.084H1.806a1.266,1.266,0,0,1-.447-.084ZM19.536,13.38l9.452-8.11a1.669,1.669,0,0,1,.084.531V21.91a2.144,2.144,0,0,1-.084.559Z" transform="translate(-0.072 -4.068)"/>
</svg>
